<svg width="42" height="43" viewBox="0 0 42 43" fill="none" xmlns="http://www.w3.org/2000/svg">
<path id="Vector" d="M39.7198 8.92479C39.1225 8.31051 38.4016 7.83817 37.6079 7.54093C36.8142 7.24368 35.9669 7.12875 35.1254 7.20419C35.2092 6.20647 35.0471 5.20311 34.6541 4.28688C34.2612 3.37064 33.65 2.57108 32.877 1.96212C32.1041 1.35315 31.1944 0.954433 30.232 0.802809C29.2696 0.651186 28.2856 0.751554 27.3709 1.09464C26.4562 1.43772 25.6403 2.01244 24.9987 2.76569C24.3571 3.51893 23.9105 4.42638 23.7001 5.40416C23.4897 6.38194 23.5224 7.39849 23.7951 8.35985C24.0678 9.32121 24.5717 10.1964 25.2602 10.9044C25.2874 10.9324 25.3146 10.9604 25.3432 10.9884L10.553 26.1992C10.5258 26.1705 10.4985 26.1432 10.4713 26.1145C9.78306 25.4057 8.93215 24.8869 7.99727 24.6059C7.06239 24.325 6.07373 24.2911 5.12273 24.5073C4.17172 24.7235 3.28907 25.1828 2.5564 25.8429C1.82372 26.5029 1.26469 27.3423 0.930987 28.2835C0.597285 29.2246 0.499692 30.2372 0.647232 31.2274C0.794772 32.2176 1.18268 33.1536 1.77509 33.9488C2.3675 34.7439 3.14527 35.3726 4.03649 35.7767C4.92771 36.1807 5.9036 36.3471 6.87391 36.2605C6.79002 37.2582 6.95201 38.2615 7.3449 39.1778C7.7378 40.0941 8.34891 40.8937 9.12177 41.5027C9.89462 42.1117 10.8043 42.5106 11.7666 42.6623C12.729 42.814 13.713 42.7138 14.6278 42.3708C15.5425 42.0278 16.3584 41.4532 17.0001 40.7001C17.6417 39.9469 18.0885 39.0395 18.299 38.0618C18.5095 37.084 18.4769 36.0675 18.2044 35.1061C17.9319 34.1447 17.4281 33.2695 16.7396 32.5614C16.7124 32.5327 16.6852 32.5054 16.658 32.4774L31.4469 17.2653C31.4741 17.294 31.5013 17.3227 31.5285 17.3507C32.6148 18.468 34.0882 19.0957 35.6244 19.0957C36.3851 19.0957 37.1384 18.9416 37.8411 18.6422C38.5439 18.3428 39.1825 17.9039 39.7204 17.3507C40.2583 16.7974 40.6849 16.1406 40.976 15.4178C41.2671 14.6949 41.417 13.9202 41.417 13.1377C41.417 12.3553 41.2671 11.5806 40.976 10.8577C40.6849 10.1348 40.2583 9.47804 39.7204 8.92479H39.7198Z" fill="url(#paint0_linear_1_2033)"/>
<defs>
<linearGradient id="paint0_linear_1_2033" x1="20.9987" y1="0.734131" x2="20.9987" y2="42.7311" gradientUnits="userSpaceOnUse">
<stop stop-color="#FFA800"/>
<stop offset="1" stop-color="#B77900"/>
</linearGradient>
</defs>
</svg>
