<svg width="32" height="51" viewBox="0 0 32 51" fill="none" xmlns="http://www.w3.org/2000/svg">
<path id="Vector" d="M30.1437 5.01834L12.793 0.941544C12.2797 0.83701 11.7664 0.941544 11.3557 1.25514C10.945 1.56874 10.7397 2.09141 10.7397 2.61408V4.96608H2.06436C1.14036 4.96608 0.370361 5.75008 0.370361 6.69088V44.7933C0.370361 45.7341 1.14036 46.5181 2.06436 46.5181H10.6884V48.8701C10.6884 49.3928 10.945 49.8632 11.3044 50.229C11.6124 50.4904 11.9717 50.5949 12.331 50.5949C12.4337 50.5949 12.5877 50.5949 12.6904 50.5426L30.041 46.4658C30.811 46.309 31.3244 45.5773 31.3244 44.7933V6.69088C31.427 5.85461 30.9137 5.17514 30.1437 5.01834ZM10.6884 43.0685H3.75836V8.36341H10.6884V43.0685ZM16.643 27.5453C15.6677 27.5453 14.8464 26.709 14.8464 25.7159C14.8464 24.7229 15.6677 23.8866 16.643 23.8866C17.6184 23.8866 18.4397 24.7229 18.4397 25.7159C18.4397 26.709 17.6184 27.5453 16.643 27.5453Z" fill="url(#paint0_linear_1_1949)"/>
<defs>
<linearGradient id="paint0_linear_1_1949" x1="15.8539" y1="0.902344" x2="15.8539" y2="50.5949" gradientUnits="userSpaceOnUse">
<stop stop-color="#D36500"/>
<stop offset="1" stop-color="#FF9900"/>
</linearGradient>
</defs>
</svg>
