<svg width="42" height="42" viewBox="0 0 42 42" fill="none" xmlns="http://www.w3.org/2000/svg">
<g id="Layer 29">
<path id="Vector" d="M21 18.7083L23.9167 25.58C23.9167 26.3639 23.6094 27.1156 23.0624 27.6699C22.5155 28.2242 21.7736 28.5356 21 28.5356C20.2265 28.5356 19.4846 28.2242 18.9376 27.6699C18.3907 27.1156 18.0834 26.3639 18.0834 25.58L21 18.7083ZM39.9584 0.177002H2.04171C1.65493 0.177002 1.284 0.332696 1.01051 0.609833C0.737019 0.88697 0.583374 1.26285 0.583374 1.65478V6.08811C0.583374 6.48004 0.737019 6.85592 1.01051 7.13306C1.284 7.41019 1.65493 7.56589 2.04171 7.56589H39.9584C40.3451 7.56589 40.7161 7.41019 40.9896 7.13306C41.2631 6.85592 41.4167 6.48004 41.4167 6.08811V1.65478C41.4167 1.26285 41.2631 0.88697 40.9896 0.609833C40.7161 0.332696 40.3451 0.177002 39.9584 0.177002ZM38.5 31.2103V9.04367H21C24.481 9.04367 27.8194 10.4449 30.2808 12.9391C32.7422 15.4334 34.125 18.8163 34.125 22.3437V31.2103H38.5ZM21 11.9992C18.2926 11.9992 15.6961 13.0891 13.7817 15.029C11.8672 16.969 10.7917 19.6001 10.7917 22.3437V31.2103H21C19.4529 31.2103 17.9692 30.5876 16.8752 29.479C15.7813 28.3705 15.1667 26.8669 15.1667 25.2992C15.1689 25.0965 15.2085 24.8961 15.2834 24.7081L19.6584 14.3637C19.7704 14.0971 19.9574 13.8698 20.1959 13.71C20.4345 13.5502 20.7141 13.4651 21 13.4651C21.286 13.4651 21.5656 13.5502 21.8042 13.71C22.0427 13.8698 22.2296 14.0971 22.3417 14.3637L26.7167 24.7081C26.7916 24.8961 26.8312 25.0965 26.8334 25.2992C26.8334 26.8669 26.2188 28.3705 25.1248 29.479C24.0309 30.5876 22.5471 31.2103 21 31.2103H31.2084V22.3437C31.2084 19.6001 30.1329 16.969 28.2184 15.029C26.304 13.0891 23.7075 11.9992 21 11.9992ZM3.50004 31.2103H7.87504V22.3437C7.87504 18.8163 9.25785 15.4334 11.7193 12.9391C14.1807 10.4449 17.5191 9.04367 21 9.04367H3.50004V31.2103ZM39.9584 32.6881H2.04171C1.65493 32.6881 1.284 32.8438 1.01051 33.1209C0.737019 33.3981 0.583374 33.774 0.583374 34.1659V40.077C0.583374 40.4689 0.737019 40.8448 1.01051 41.1219C1.284 41.3991 1.65493 41.5548 2.04171 41.5548H39.9584C40.3451 41.5548 40.7161 41.3991 40.9896 41.1219C41.2631 40.8448 41.4167 40.4689 41.4167 40.077V34.1659C41.4167 33.774 41.2631 33.3981 40.9896 33.1209C40.7161 32.8438 40.3451 32.6881 39.9584 32.6881Z" fill="url(#paint0_linear_1_2014)"/>
</g>
<defs>
<linearGradient id="paint0_linear_1_2014" x1="21" y1="0.177002" x2="21" y2="41.5548" gradientUnits="userSpaceOnUse">
<stop stop-color="#FF002E"/>
<stop offset="1" stop-color="#FF3E3E"/>
</linearGradient>
</defs>
</svg>
