<svg width="34" height="53" viewBox="0 0 34 53" fill="none" xmlns="http://www.w3.org/2000/svg">
<g id="Layer 2">
<path id="Vector" d="M9.86941 46.7331H24.13C23.7046 48.3148 22.7759 49.7112 21.4873 50.7067C20.1987 51.7022 18.6217 52.2416 16.9997 52.2416C15.3776 52.2416 13.8007 51.7022 12.512 50.7067C11.2234 49.7112 10.2948 48.3148 9.86941 46.7331ZM33.4584 42.2344L26.2358 25.8077V16.8664C26.2358 16.3713 26.0412 15.8965 25.6948 15.5465C25.3483 15.1964 24.8785 14.9997 24.3886 14.9997H18.8469V1.93307C18.8469 1.438 18.6523 0.963208 18.3059 0.61314C17.9594 0.263072 17.4896 0.0664063 16.9997 0.0664062C16.5098 0.0664063 16.0399 0.263072 15.6935 0.61314C15.3471 0.963208 15.1525 1.438 15.1525 1.93307V14.9997H9.6108C9.12089 14.9997 8.65104 15.1964 8.30462 15.5465C7.9582 15.8965 7.76358 16.3713 7.76358 16.8664V25.8077L0.54094 42.2344C0.414617 42.5184 0.360591 42.8298 0.38378 43.1402C0.406969 43.4507 0.506637 43.7504 0.673709 44.012C0.840782 44.2736 1.06995 44.4888 1.34036 44.638C1.61076 44.7872 1.91381 44.8658 2.22191 44.8664H31.7775C32.0856 44.8658 32.3886 44.7872 32.659 44.638C32.9294 44.4888 33.1586 44.2736 33.3257 44.012C33.4927 43.7504 33.5924 43.4507 33.6156 43.1402C33.6388 42.8298 33.5848 42.5184 33.4584 42.2344Z" fill="url(#paint0_linear_1_1997)"/>
</g>
<defs>
<linearGradient id="paint0_linear_1_1997" x1="16.9997" y1="0.0664062" x2="16.9997" y2="52.2416" gradientUnits="userSpaceOnUse">
<stop stop-color="#FFB800"/>
<stop offset="1" stop-color="#E3DE67"/>
</linearGradient>
</defs>
</svg>
