<!DOCTYPE svg PUBLIC "-//W3C//DTD SVG 1.1//EN" "http://www.w3.org/Graphics/SVG/1.1/DTD/svg11.dtd">

<!-- Uploaded to: SVG Repo, www.svgrepo.com, Transformed by: SVG Repo Mixer Tools -->
<svg height="55px" width="55px" version="1.1" id="Layer_1" xmlns="http://www.w3.org/2000/svg" xmlns:xlink="http://www.w3.org/1999/xlink" viewBox="-51.2 -51.2 614.40 614.40" xml:space="preserve" fill="#000000">

<g id="SVGRepo_bgCarrier" stroke-width="0"/>

<g id="SVGRepo_tracerCarrier" stroke-linecap="round" stroke-linejoin="round"/>

<g id="SVGRepo_iconCarrier"> <path style="fill:#7AC0DE;" d="M333.576,0c-12.853,0-23.273,10.42-23.273,23.273v108.606c0,12.853,10.42,23.273,23.273,23.273 s23.273-10.42,23.273-23.273V23.273C356.848,10.42,346.428,0,333.576,0z"/> <path style="fill:#7AC0DE;" d="M178.424,0c-12.853,0-23.273,10.42-23.273,23.273v108.606c0,12.853,10.42,23.273,23.273,23.273 c12.853,0,23.273-10.42,23.273-23.273V23.273C201.697,10.42,191.277,0,178.424,0z"/> <path style="fill:#7AC0DE;" d="M442.182,108.606h-31.03H100.848h-31.03c-12.853,0-23.273,10.42-23.273,23.273 s10.42,23.273,23.273,23.273h7.758V256c0,90.497,67.724,165.468,155.152,176.907v55.82C232.727,501.58,243.147,512,256,512 c12.853,0,23.273-10.42,23.273-23.273v-55.82c87.428-11.439,155.152-86.41,155.152-176.907V155.152h7.758 c12.853,0,23.273-10.42,23.273-23.273S455.035,108.606,442.182,108.606z"/> <path style="fill:#7AC0DE;" d="M442.182,108.606h-31.03H256V512c12.853,0,23.273-10.42,23.273-23.273v-55.82 c87.428-11.439,155.152-86.41,155.152-176.907V155.152h7.758c12.853,0,23.273-10.42,23.273-23.273S455.035,108.606,442.182,108.606z "/> </g>

</svg>